<?xml version="1.0" encoding="UTF-8" standalone="no"?>
<!-- Created with Inkscape (http://www.inkscape.org/) -->

<svg
   xmlns:dc="http://purl.org/dc/elements/1.1/"
   xmlns:cc="http://creativecommons.org/ns#"
   xmlns:rdf="http://www.w3.org/1999/02/22-rdf-syntax-ns#"
   xmlns:svg="http://www.w3.org/2000/svg"
   xmlns="http://www.w3.org/2000/svg"
   xmlns:sodipodi="http://sodipodi.sourceforge.net/DTD/sodipodi-0.dtd"
   xmlns:inkscape="http://www.inkscape.org/namespaces/inkscape"
   width="265.00201"
   height="297.85699"
   viewBox="0 0 70.115113 78.80799"
   version="1.1"
   id="svg6811"
   inkscape:version="0.92.2 (unknown)"
   sodipodi:docname="second-page.svg">
  <defs
     id="defs6805">
    <mask
       maskUnits="userSpaceOnUse"
       id="mask7487">
      <rect
         style="opacity:1;fill:#488aff;fill-opacity:1;stroke:none;stroke-width:7.03791666;stroke-linecap:round;stroke-linejoin:round;stroke-miterlimit:4;stroke-dasharray:none;stroke-opacity:1;paint-order:normal"
         id="rect7489"
         width="97.51786"
         height="169.33333"
         x="-113.17144"
         y="186.8524" />
    </mask>
  </defs>
  <sodipodi:namedview
     id="base"
     pagecolor="#ffffff"
     bordercolor="#666666"
     borderopacity="1.0"
     inkscape:pageopacity="0.0"
     inkscape:pageshadow="2"
     inkscape:zoom="1.979899"
     inkscape:cx="120.06556"
     inkscape:cy="162.43363"
     inkscape:document-units="mm"
     inkscape:current-layer="layer1"
     showgrid="false"
     units="px"
     inkscape:window-width="1920"
     inkscape:window-height="1006"
     inkscape:window-x="1920"
     inkscape:window-y="21"
     inkscape:window-maximized="1"
     showguides="true"
     inkscape:guide-bbox="true" />
  <metadata
     id="metadata6808">
    <rdf:RDF>
      <cc:Work
         rdf:about="">
        <dc:format>image/svg+xml</dc:format>
        <dc:type
           rdf:resource="http://purl.org/dc/dcmitype/StillImage" />
        <dc:title />
      </cc:Work>
    </rdf:RDF>
  </metadata>
  <g
     inkscape:label="Layer 1"
     inkscape:groupmode="layer"
     id="layer1"
     transform="translate(0,-218.19205)">
    <rect
       style="opacity:1;fill:#488aff;fill-opacity:1;stroke:none;stroke-width:7.03791666;stroke-linecap:round;stroke-linejoin:round;stroke-miterlimit:4;stroke-dasharray:none;stroke-opacity:1;paint-order:normal"
       id="rect7367"
       width="70.115112"
       height="78.807999"
       x="0"
       y="218.19205" />
    <rect
       style="opacity:1;fill:#ffffff;fill-opacity:1;stroke:none;stroke-width:4;stroke-linecap:round;stroke-linejoin:round;stroke-miterlimit:22.92560005;stroke-dasharray:none;stroke-opacity:1;paint-order:normal"
       id="rect9775"
       width="19.672949"
       height="1.9287206"
       x="-173.42325"
       y="199.09067"
       transform="rotate(-44.030629)" />
    <path
       style="fill:#ffffff;fill-opacity:1;stroke:none;stroke-width:0.26458332px;stroke-linecap:butt;stroke-linejoin:miter;stroke-opacity:1"
       d="m 25.162932,248.53546 5.523439,5.72801 v -5.65983 z"
       id="path9779"
       inkscape:connector-curvature="0" />
    <rect
       style="opacity:1;fill:#ffffff;fill-opacity:1;stroke:none;stroke-width:4;stroke-linecap:round;stroke-linejoin:round;stroke-miterlimit:22.92560005;stroke-dasharray:none;stroke-opacity:1;paint-order:normal"
       id="rect9775-1"
       width="8.7627535"
       height="1.9287201"
       x="187.04822"
       y="163.85381"
       transform="matrix(0.70307409,0.7111166,-0.71108628,0.70310476,0,0)" />
    <rect
       style="opacity:1;fill:#ffffff;fill-opacity:1;stroke:none;stroke-width:4.00000095;stroke-linecap:round;stroke-linejoin:round;stroke-miterlimit:22.92560005;stroke-dasharray:none;stroke-opacity:1;paint-order:normal"
       id="rect9775-1-2"
       width="6.7179465"
       height="1.9287186"
       x="202.23361"
       y="162.67822"
       transform="matrix(0.69907449,0.71504885,-0.71576497,0.69834125,0,0)" />
    <path
       style="fill:#ffffff;fill-opacity:1;stroke:none;stroke-width:0.26458332px;stroke-linecap:butt;stroke-linejoin:miter;stroke-opacity:1"
       d="m 30.682432,259.8656 -5.728008,5.52345 h 5.659833 z"
       id="path9779-7"
       inkscape:connector-curvature="0" />
    <flowRoot
       xml:space="preserve"
       id="flowRoot9832"
       style="font-style:normal;font-weight:normal;font-size:17.33333355px;line-height:347.39370728px;font-family:sans-serif;letter-spacing:0px;word-spacing:0px;fill:#000000;fill-opacity:1;stroke:none;"
       transform="matrix(0.26458333,0,0,0.26458333,0,218.19205)"><flowRegion
         id="flowRegion9834"
         style="font-size:17.33333355px;"><rect
           id="rect9836"
           width="189.2942"
           height="80.697174"
           x="116.42008"
           y="137.8741"
           style="font-size:17.33333355px;" /></flowRegion><flowPara
         id="flowPara9838">gc</flowPara></flowRoot>    <g
       aria-label="GC"
       transform="matrix(0.42947423,0,0,0.34878838,156.84989,168.0032)"
       style="font-style:normal;font-weight:normal;font-size:40px;line-height:347.39370728px;font-family:sans-serif;letter-spacing:0px;word-spacing:0px;fill:#ffffff;fill-opacity:1;stroke:none;stroke-width:0.68361706"
       id="flowRoot9840">
      <path
         id="path9894"
         style="font-style:normal;font-variant:normal;font-weight:normal;font-stretch:normal;line-height:0px;font-family:'DejaVu Sans Mono';-inkscape-font-specification:'DejaVu Sans Mono';fill:#ffffff;stroke-width:0.68361706"
         d="m -232.83789,269.48006 q -1.50391,0.80079 -3.08594,1.19141 -1.58203,0.41016 -3.35937,0.41016 -5.60547,0 -8.71094,-3.96485 -3.08594,-3.96484 -3.08594,-11.15234 0,-7.14844 3.10547,-11.13281 3.125,-4.00391 8.69141,-4.00391 1.77734,0 3.35937,0.41016 1.58203,0.39062 3.08594,1.1914 v 4.04297 q -1.44531,-1.1914 -3.10547,-1.8164 -1.66016,-0.625 -3.33984,-0.625 -3.84766,0 -5.76172,2.96875 -1.91406,2.96875 -1.91406,8.96484 0,5.97656 1.91406,8.94531 1.91406,2.96875 5.76172,2.96875 1.71875,0 3.35937,-0.625 1.66016,-0.625 3.08594,-1.8164 z m -23.45703,-1.36718 q -1.58203,1.46484 -3.57422,2.22656 -1.97266,0.74219 -4.27734,0.74219 -5.54688,0 -8.63282,-3.96485 -3.08593,-3.98437 -3.08593,-11.15234 0,-7.14844 3.125,-11.13281 3.125,-4.00391 8.6914,-4.00391 1.83594,0 3.51563,0.52734 1.67968,0.50782 3.24218,1.5625 v 4.04297 q -1.58203,-1.5039 -3.24218,-2.20703 -1.66016,-0.72265 -3.51563,-0.72265 -3.84765,0 -5.78125,2.98828 -1.91406,2.96875 -1.91406,8.94531 0,6.07422 1.85547,9.00391 1.875,2.91015 5.74219,2.91015 1.30859,0 2.28515,-0.29297 0.9961,-0.3125 1.79688,-0.95703 v -7.83203 h -4.23828 v -3.24219 h 8.00781 z"
         inkscape:connector-curvature="0" />
    </g>
  </g>
</svg>
