<?xml version="1.0" encoding="UTF-8" standalone="no"?>
<svg
   xmlns:dc="http://purl.org/dc/elements/1.1/"
   xmlns:cc="http://creativecommons.org/ns#"
   xmlns:rdf="http://www.w3.org/1999/02/22-rdf-syntax-ns#"
   xmlns:svg="http://www.w3.org/2000/svg"
   xmlns="http://www.w3.org/2000/svg"
   xmlns:sodipodi="http://sodipodi.sourceforge.net/DTD/sodipodi-0.dtd"
   xmlns:inkscape="http://www.inkscape.org/namespaces/inkscape"
   data-name="Layer 1"
   viewBox="0 0 100 100"
   x="0px"
   y="0px"
   version="1.1"
   id="svg10"
   sodipodi:docname="icons.svg"
   width="100"
   height="100"
   inkscape:export-filename="/home/victor/Desktop/workspace/gas/src/assets/icon/coffee.png"
   inkscape:export-xdpi="24"
   inkscape:export-ydpi="24"
   inkscape:version="0.92.2 (unknown)">
  <metadata
     id="metadata16">
    <rdf:RDF>
      <cc:Work
         rdf:about="">
        <dc:format>image/svg+xml</dc:format>
        <dc:type
           rdf:resource="http://purl.org/dc/dcmitype/StillImage" />
        <dc:title>Artboard 13</dc:title>
      </cc:Work>
    </rdf:RDF>
  </metadata>
  <defs
     id="defs14" />
  <sodipodi:namedview
     pagecolor="#ffffff"
     bordercolor="#666666"
     borderopacity="1"
     objecttolerance="10"
     gridtolerance="10"
     guidetolerance="10"
     inkscape:pageopacity="0"
     inkscape:pageshadow="2"
     inkscape:window-width="1920"
     inkscape:window-height="1006"
     id="namedview12"
     showgrid="false"
     inkscape:zoom="2.6700352"
     inkscape:cx="51.808376"
     inkscape:cy="55.009462"
     inkscape:window-x="0"
     inkscape:window-y="21"
     inkscape:window-maximized="1"
     inkscape:current-layer="svg10" />
  <title
     id="title2">Artboard 13</title>
  <path
     d="m -47.27079,44.690348 a 42.82,42.82 0 0 0 -45.4,0 10.12,10.12 0 0 0 -4.66,7.48 10.49,10.49 0 0 0 3,8.63 l 0.42,0.42 a 10.29,10.29 0 0 0 12.72,1.32 21.57,21.57 0 0 1 22.43,0 10.71,10.71 0 0 0 5.6,1.6 10,10 0 0 0 7.16,-2.97 l 0.42,-0.42 a 10.49,10.49 0 0 0 3,-8.63 10.11,10.11 0 0 0 -4.69,-7.43 z m -2.6,11.87 -0.42,0.42 a 4.27,4.27 0 0 1 -5.34,0.45 27.57,27.57 0 0 0 -28.7,0 4.26,4.26 0 0 1 -5.33,-0.45 l -0.42,-0.42 a 4.52,4.52 0 0 1 -1.3,-3.72 4.11,4.11 0 0 1 1.91,-3.15 36.82,36.82 0 0 1 39,0 4.11,4.11 0 0 1 1.9,3.07 4.52,4.52 0 0 1 -1.3,3.75 z m 25.15,-33.3 a 72.36,72.36 0 0 0 -45.28,-15.64 72.35,72.35 0 0 0 -45.29,15.69 10.47,10.47 0 0 0 -3.94,7.56 10.61,10.61 0 0 0 3,8.09 v 0 a 10.51,10.51 0 0 0 14,0.93 52.73,52.73 0 0 1 64.36,0 10.52,10.52 0 0 0 13.92,-0.85 l 0.1,-0.09 a 10.61,10.61 0 0 0 3.08,-8.12 10.46,10.46 0 0 0 -3.95,-7.57 z m -3.37,11.43 -0.09,0.09 a 4.52,4.52 0 0 1 -6,0.38 58.79,58.79 0 0 0 -71.77,0 4.52,4.52 0 0 1 -6,-0.41 4.61,4.61 0 0 1 -1.31,-3.51 4.41,4.41 0 0 1 1.68,-3.23 66.41,66.41 0 0 1 41.58,-14.39 66.41,66.41 0 0 1 41.57,14.35 4.4,4.4 0 0 1 1.68,3.24 4.6,4.6 0 0 1 -1.34,3.48 z m -41.91,57.070002 a 12.43,12.43 0 1 0 -8.79,-3.64 12.34,12.34 0 0 0 8.79,3.64 z m -4.55,-17.000002 a 6.43,6.43 0 1 1 -1.88,4.54 6.39,6.39 0 0 1 1.91,-4.51 z"
     id="path4"
     inkscape:connector-curvature="0"
     style="fill:#4b84fb;fill-opacity:1" />
  <g
     id="g4585"
     transform="translate(120.51845,0.80410117)"
     style="fill:#4b84fb;fill-opacity:1"
     inkscape:export-filename="/home/victor/Desktop/workspace/gas/src/assets/icon/store.png"
     inkscape:export-xdpi="15.36"
     inkscape:export-ydpi="15.36">
    <path
       id="path4568"
       d="M 27.29,58.6 V 80.7 H 72.71 V 58.6 a 3,3 0 0 1 6,0 v 25.1 a 3,3 0 0 1 -3,3 H 24.29 a 3,3 0 0 1 -3,-3 V 58.6 a 3,3 0 0 1 6,0 z M 89.41,80.7 H 88.48 V 59.36 a 3,3 0 0 0 -6,0 V 83.7 a 3,3 0 0 0 3,3 h 3.93 a 1.9,1.9 0 0 1 0,3.77 H 10.59 a 1.9,1.9 0 0 1 0,-3.77 h 3.93 a 3,3 0 0 0 3,-3 V 59.36 a 3,3 0 1 0 -6,0 V 80.7 h -0.93 a 7.89,7.89 0 0 0 0,15.77 h 78.82 a 7.89,7.89 0 0 0 0,-15.77 z M 81.85,53.6 A 14.82,14.82 0 0 1 71.2,49.05 14.81,14.81 0 0 1 60.56,53.6 14.65,14.65 0 0 1 50,49.16 14.65,14.65 0 0 1 39.44,53.6 14.81,14.81 0 0 1 28.8,49.05 14.82,14.82 0 0 1 18.15,53.6 c -0.34,0 -0.68,0 -1,0 A 13.61,13.61 0 0 1 6.28,46.86 14.43,14.43 0 0 1 5.48,33.53 L 16.56,8.88 a 9.09,9.09 0 0 1 8.28,-5.36 h 50.32 a 9.09,9.09 0 0 1 8.28,5.36 l 11.08,24.65 a 14.43,14.43 0 0 1 -0.8,13.33 13.61,13.61 0 0 1 -10.87,6.71 c -0.32,0.02 -0.66,0.03 -1,0.03 z m 0,-6 h 0.6 A 7.69,7.69 0 0 0 88.58,43.79 8.43,8.43 0 0 0 89.05,36 L 78,11.34 A 3.08,3.08 0 0 0 75.19,9.52 H 24.84 A 3.08,3.08 0 0 0 22,11.34 L 10.95,36 a 8.43,8.43 0 0 0 0.47,7.79 7.69,7.69 0 0 0 6.13,3.81 v 0 h 0.6 a 8.81,8.81 0 0 0 7.93,-5 3,3 0 0 1 2.71,-1.72 v 0 a 3,3 0 0 1 2.71,1.72 8.81,8.81 0 0 0 7.93,5 8.72,8.72 0 0 0 7.87,-4.92 3,3 0 0 1 5.39,0 8.72,8.72 0 0 0 7.87,4.92 8.81,8.81 0 0 0 7.93,-5 3,3 0 0 1 5.43,0 8.81,8.81 0 0 0 7.93,5 z"
       inkscape:connector-curvature="0"
       style="fill:#4b84fb;fill-opacity:1" />
  </g>
  <g
     id="g4660"
     transform="matrix(0.94394708,0,0,0.94394708,2.2913465,3.368042)"
     style="fill:#4b84fb;fill-opacity:1;stroke-width:1.05938137">
    <path
       id="path4643"
       d="m 90.09,25.59 v -9 A 5.93,5.93 0 0 0 84.17,10.67 H 81.69 L 78.74,4.72 a 7.09,7.09 0 0 0 -6.39,-4 h -44.7 a 7.09,7.09 0 0 0 -6.39,4 l -2.95,5.95 h -2.48 a 5.93,5.93 0 0 0 -5.92,5.92 v 9 a 5.93,5.93 0 0 0 5.92,5.92 h 68.34 a 5.93,5.93 0 0 0 5.92,-5.92 z m -6,-0.08 H 15.91 v -8.85 h 4.26 A 3,3 0 0 0 22.86,15 l 3.77,-7.61 a 1.13,1.13 0 0 1 1,-0.63 h 44.7 a 1.13,1.13 0 0 1 1,0.63 L 77.14,15 a 3,3 0 0 0 2.69,1.67 h 4.26 z m -2.86,28 a 3,3 0 0 1 -3,2.71 H 59.75 a 3,3 0 0 1 -2.75,-1.7 7.73,7.73 0 0 0 -14.05,0 3,3 0 0 1 -2.72,1.74 H 21.75 a 3,3 0 0 1 -3,-2.71 L 17.24,38.41 a 3.0135071,3.0135071 0 0 1 6,-0.57 l 1.26,12.42 h 14 a 13.72,13.72 0 0 1 23,0 h 14 l 1.26,-12.42 a 3.0135071,3.0135071 0 0 1 6,0.57 z m -3.85,8.71 H 59.75 A 3,3 0 0 0 57,64 7.73,7.73 0 0 1 43,64 3,3 0 0 0 40.28,62.26 H 22.61 a 3,3 0 0 0 -3,3.29 l 3,28.28 a 6,6 0 0 0 6,5.43 h 42.81 a 6,6 0 0 0 6,-5.4 L 80.24,67 80.37,65.59 a 3,3 0 0 0 -3,-3.28 z m -6,31 H 28.54 l -2.65,-25 h 12.6 a 13.72,13.72 0 0 0 23,0 h 12.58 z"
       inkscape:connector-curvature="0"
       style="fill:#4b84fb;fill-opacity:1;stroke-width:1.05938137" />
  </g>
  <g
     id="g4735"
     transform="matrix(0.94343083,0,0,0.94343083,2.8978068,103.54987)"
     style="fill:#4b84fb;fill-opacity:1;stroke-width:1.05996108">
    <path
       id="path4718"
       d="m 79.47,70.83 a 4.12,4.12 0 0 0 -3.54,-2 v 0 a 4.12,4.12 0 0 0 -3.54,2 l -6,9.83 A 11.45,11.45 0 0 0 66,92 a 11,11 0 0 0 9.06,6 h 0.84 0.83 A 11,11 0 0 0 85.8,92 11.45,11.45 0 0 0 85.43,80.69 l -6,-9.83 z m 1,18.38 A 5,5 0 0 1 76.34,92 5.76,5.76 0 0 1 75.5,92 5,5 0 0 1 71.35,89.23 5.5,5.5 0 0 1 71.52,83.8 l 4.4,-7.23 4.4,7.24 a 5.5,5.5 0 0 1 0.18,5.41 z M 33.81,19.93 A 8,8 0 0 0 26,26.4 h -9.1 a 8,8 0 0 0 -8,8 v 5.14 a 8,8 0 0 0 8,8 H 26 A 8,8 0 0 0 33.81,54 h 17.68 a 8,8 0 0 0 7.85,-6.47 h 6 v 2.16 a 8,8 0 0 0 -4.64,7.25 v 0.91 a 8,8 0 0 0 8,8 h 14.44 a 8,8 0 0 0 8,-8 V 56.94 A 8,8 0 0 0 86.5,49.69 v -15.3 a 8,8 0 0 0 -8,-8 H 59.33 A 8,8 0 0 0 51.48,19.92 H 50.77 V 18 h 2.11 a 8,8 0 0 0 0,-16 H 32.69 a 8,8 0 1 0 0,16 h 2.11 v 1.95 z m 4,-7.95 h -5.12 a 2,2 0 1 1 0,-4 h 20.2 a 2,2 0 0 1 0,4 h -5.11 a 3,3 0 0 0 -3,3 v 7.95 a 3,3 0 0 0 3,3 h 3.71 a 2,2 0 0 1 2,2 v 1.47 a 3,3 0 0 0 3,3 h 22 a 2,2 0 0 1 2,2 V 52 a 3,3 0 0 0 2.79,3 2,2 0 0 1 1.85,2 v 0.91 a 2,2 0 0 1 -2,2 H 68.71 a 2,2 0 0 1 -2,-2 V 57 a 2,2 0 0 1 1.85,-2 3,3 0 0 0 2.79,-3 v -7.47 a 3,3 0 0 0 -3,-3 H 56.48 a 3,3 0 0 0 -3,3 V 46 a 2,2 0 0 1 -2,2 H 33.81 a 2,2 0 0 1 -2,-2 v -1.47 a 3,3 0 0 0 -3,-3 h -12 a 2,2 0 0 1 -2,-2 v -5.14 a 2,2 0 0 1 2,-2 h 12 a 3,3 0 0 0 3,-3 v -1.47 a 2,2 0 0 1 2,-2 h 4 a 3,3 0 0 0 3,-3 V 15 A 3,3 0 0 0 37.8,12 Z"
       inkscape:connector-curvature="0"
       style="fill:#4b84fb;fill-opacity:1;stroke-width:1.05996108" />
  </g>
  <g
     id="g4826"
     transform="matrix(1.0343153,0,0,1.0343153,108.08373,-105.7395)"
     style="fill:#4b84fb;fill-opacity:1;stroke-width:0.96682322">
    <path
       id="path4809"
       d="M 19.67,88.2 H 80.33 C 88.766625,88.1945 95.604484,81.356625 95.61,72.92 V 27.08 C 95.604484,18.643375 88.766625,11.805516 80.33,11.8 H 19.67 C 11.233375,11.8055 4.3955159,18.643375 4.39,27.08 v 45.84 c 0.00552,8.436625 6.843375,15.274484 15.28,15.28 z M 10.39,27.08 c 0.0055,-5.122918 4.157082,-9.274489 9.28,-9.28 h 60.66 c 5.122918,0.0055 9.274489,4.157082 9.28,9.28 v 45.84 c -0.0055,5.122918 -4.157082,9.274489 -9.28,9.28 H 19.67 c -5.122918,-0.0055 -9.274489,-4.157082 -9.28,-9.28 z"
       inkscape:connector-curvature="0"
       sodipodi:nodetypes="cccccccccccccccccc"
       style="fill:#4b84fb;fill-opacity:1;stroke-width:0.96682322" />
  </g>
  <rect
     style="opacity:1;fill:#4b84fb;fill-opacity:1;stroke:none;stroke-width:107.71652985;stroke-linecap:round;stroke-linejoin:miter;stroke-miterlimit:4;stroke-dasharray:none;stroke-opacity:1;paint-order:normal"
     id="rect4828"
     width="83.867531"
     height="6.1980619"
     x="118.34326"
     y="-79.916641" />
  <rect
     style="opacity:1;fill:#4b84fb;fill-opacity:1;stroke:none;stroke-width:107.71652985;stroke-linecap:round;stroke-linejoin:miter;stroke-miterlimit:4;stroke-dasharray:none;stroke-opacity:1;paint-order:normal"
     id="rect4828-6"
     width="83.867531"
     height="6.1980619"
     x="117.5685"
     y="-70.522697" />
  <rect
     style="opacity:1;fill:#4b84fb;fill-opacity:1;stroke:none;stroke-width:107.7165451;stroke-linecap:round;stroke-linejoin:miter;stroke-miterlimit:4;stroke-dasharray:none;stroke-opacity:1;paint-order:normal"
     id="rect4828-6-5"
     width="47.453918"
     height="3.8737886"
     x="148.36513"
     y="-34.814056" />
</svg>
